# xmcd CD database file
#
# Track frame offsets:
#	150
#	10035
#	22315
#	34092
#	46622
#	57770
#	68909
#	83941
#	94715
#	109180
#	121829
#	134884
#	148050
#	163429
#	177511
#	191337
#	205023
#	216887
#	231222
#	242671
#	255951
#	271933
#	285967
#	301417
#	315008
#
# Disc length: 4347 seconds
#
# Revision: 0
# Processed by: cddbd v1.5.1PL0 Copyright (c) Steve Scherf et al.
# Submitted via: CDex 1.51
#
DISCID=5c10f919
DTITLE=Teodoro and Sampaio - Dose dupla
DYEAR=1900
DGENRE=Country
TTITLE0=Quem tem ... tem medo
TTITLE1=Vida bagunçada
TTITLE2=Pega pega
TTITLE3=Festa de rua
TTITLE4=Pula ne mim menina
TTITLE5=Cavalo popeye
TTITLE6=Bão tamem
TTITLE7=Meu negocio e mulher
TTITLE8=Pega no pe
TTITLE9=Tombo da paixão
TTITLE10=Feitiço de amor
TTITLE11=madrugada fria
TTITLE12=O garrafão
TTITLE13=Raimunda
TTITLE14=Meu barraco caiu
TTITLE15=Vida de cachorro
TTITLE16=Amo, amasso e paixão
TTITLE17=Paixão bandida
TTITLE18=Mulher perogosa
TTITLE19=O pau quebrou
TTITLE20=Se o remedio não voltar
TTITLE21=A rabada da cunhada
TTITLE22=To na boca da sogra
TTITLE23=Chora coração
TTITLE24=Fiquem com deus
EXTD=
EXTT0=
EXTT1=
EXTT2=
EXTT3=
EXTT4=
EXTT5=
EXTT6=
EXTT7=
EXTT8=
EXTT9=
EXTT10=
EXTT11=
EXTT12=
EXTT13=
EXTT14=
EXTT15=
EXTT16=
EXTT17=
EXTT18=
EXTT19=
EXTT20=
EXTT21=
EXTT22=
EXTT23=
EXTT24=
PLAYORDER=
